<svg xmlns="http://www.w3.org/2000/svg" viewBox="0 0 64 64" fill="none">
<defs>
<filter id="pt-image-sh" x="-50%" y="-200%" width="200%" height="500%">
<feGaussianBlur stdDeviation="1.2"/>
</filter>
<linearGradient id="pt-image-0" x1="0" y1="8" x2="0" y2="56" gradientUnits="userSpaceOnUse">
<stop offset="0" stop-color="#edf1f5"/>
<stop offset=".5" stop-color="#edf1f5"/>
<stop offset=".5" stop-color="#f1f4f7"/>
<stop offset="1" stop-color="#f1f4f7"/>
</linearGradient>
<linearGradient id="pt-image-1" x1="0" y1="17" x2="0" y2="44" gradientUnits="userSpaceOnUse">
<stop offset="0" stop-color="#b0e2ff"/>
<stop offset=".5" stop-color="#b0e2ff"/>
<stop offset=".5" stop-color="#c1e8ff"/>
<stop offset="1" stop-color="#c1e8ff"/>
</linearGradient>
<linearGradient id="pt-image-3" x1="0" y1="29" x2="0" y2="44" gradientUnits="userSpaceOnUse">
<stop offset="0" stop-color="#45a659"/>
<stop offset=".5" stop-color="#45a659"/>
<stop offset=".5" stop-color="#6eba7e"/>
<stop offset="1" stop-color="#6eba7e"/>
</linearGradient>
</defs>
<ellipse cx="32" cy="57.5" rx="18" ry="2.4" fill="#000" fill-opacity=".22" filter="url(#pt-image-sh)"/>
<rect x="7" y="12" width="50" height="40" rx="4" fill="url(#pt-image-0)" transform="rotate(-4 32 32)"/>
<g transform="rotate(-4 32 32)">
<rect x="12" y="17" width="40" height="27" rx="2" fill="url(#pt-image-1)"/>
<circle cx="43" cy="24" r="4.2" fill="#ffcb53"/>
<path d="M12 44l12-15 8.5 9.5 5.5-6 14 11.5z" fill="url(#pt-image-3)"/>
<path d="M24 29l3 3.4-3-.8-2.6 1.4z" fill="#fff" fill-opacity=".75"/>
<rect x="12" y="17" width="40" height="27" rx="2" fill="none" stroke="#14283c" stroke-opacity=".35" stroke-width="1"/>
</g>
</svg>
